<svg xmlns="http://www.w3.org/2000/svg" xmlns:xlink="http://www.w3.org/1999/xlink" viewBox="0 0 401.36 296"><defs><style>.cls-1{fill:none;}.cls-2{fill:#f29100;}.cls-3{fill:#e84e1b;}.cls-4{fill:url(#linear-gradient);}.cls-5{fill:#bd1622;}.cls-6{fill:url(#linear-gradient-2);}.cls-7{fill:#dddb00;}.cls-8{fill:url(#linear-gradient-3);}.cls-9{fill:#fbe910;}.cls-10{fill:url(#linear-gradient-4);}.cls-11{fill:#f8b133;}.cls-12{fill:url(#linear-gradient-5);}.cls-13{fill:url(#linear-gradient-6);}.cls-14{fill:url(#linear-gradient-7);}.cls-15{fill:url(#linear-gradient-8);}.cls-16{fill:url(#linear-gradient-9);}.cls-17{fill:url(#linear-gradient-10);}.cls-18{fill:url(#linear-gradient-11);}.cls-19{fill:url(#linear-gradient-12);}.cls-20{fill:#fff;}</style><linearGradient id="linear-gradient" x1="123.69" y1="50.85" x2="78.7" y2="123.47" gradientUnits="userSpaceOnUse"><stop offset="0" stop-color="#f29100"/><stop offset="0.2" stop-color="#f29203"/><stop offset="0.33" stop-color="#f3960c"/><stop offset="0.44" stop-color="#f39d1b"/><stop offset="0.55" stop-color="#f4a631"/><stop offset="0.65" stop-color="#f6b24d"/><stop offset="0.74" stop-color="#f8c170"/><stop offset="0.83" stop-color="#fad399"/><stop offset="0.92" stop-color="#fce7c8"/><stop offset="1" stop-color="#fffefc"/><stop offset="1" stop-color="#fff"/></linearGradient><linearGradient id="linear-gradient-2" x1="84.6" y1="97.09" x2="84.6" y2="182.95" gradientUnits="userSpaceOnUse"><stop offset="0" stop-color="#e84e1b"/><stop offset="0.2" stop-color="#e8501e"/><stop offset="0.34" stop-color="#e95727"/><stop offset="0.46" stop-color="#eb6336"/><stop offset="0.57" stop-color="#ed744c"/><stop offset="0.67" stop-color="#f08a68"/><stop offset="0.77" stop-color="#f3a58a"/><stop offset="0.86" stop-color="#f7c4b3"/><stop offset="0.95" stop-color="#fce8e2"/><stop offset="1" stop-color="#fff"/></linearGradient><linearGradient id="linear-gradient-3" x1="75.02" y1="162.58" x2="117.65" y2="235.99" gradientUnits="userSpaceOnUse"><stop offset="0" stop-color="#bd1622"/><stop offset="0.2" stop-color="#be1925"/><stop offset="0.34" stop-color="#c0222d"/><stop offset="0.46" stop-color="#c5313c"/><stop offset="0.57" stop-color="#cb4750"/><stop offset="0.67" stop-color="#d3636b"/><stop offset="0.77" stop-color="#dd858c"/><stop offset="0.86" stop-color="#e8aeb3"/><stop offset="0.94" stop-color="#f5ddde"/><stop offset="1" stop-color="#fff"/></linearGradient><linearGradient id="linear-gradient-4" x1="104.22" y1="224.08" x2="174.47" y2="272.23" gradientUnits="userSpaceOnUse"><stop offset="0" stop-color="#d50b52"/><stop offset="0.2" stop-color="#d50e54"/><stop offset="0.33" stop-color="#d7175a"/><stop offset="0.45" stop-color="#da2665"/><stop offset="0.56" stop-color="#dd3c75"/><stop offset="0.66" stop-color="#e25889"/><stop offset="0.75" stop-color="#e87aa1"/><stop offset="0.84" stop-color="#efa4be"/><stop offset="0.93" stop-color="#f7d2df"/><stop offset="1" stop-color="#fff"/></linearGradient><linearGradient id="linear-gradient-5" x1="161.63" y1="263.71" x2="238.25" y2="263.71" gradientUnits="userSpaceOnUse"><stop offset="0" stop-color="#941b80"/><stop offset="0.2" stop-color="#951e82"/><stop offset="0.34" stop-color="#9a2787"/><stop offset="0.46" stop-color="#a1368f"/><stop offset="0.57" stop-color="#ab4c9b"/><stop offset="0.67" stop-color="#b868ab"/><stop offset="0.77" stop-color="#c88abe"/><stop offset="0.86" stop-color="#dcb3d5"/><stop offset="0.95" stop-color="#f1e2ef"/><stop offset="1" stop-color="#fff"/></linearGradient><linearGradient id="linear-gradient-6" x1="218.27" y1="271.08" x2="291.67" y2="229.24" gradientUnits="userSpaceOnUse"><stop offset="0" stop-color="#662482"/><stop offset="0.21" stop-color="#682784"/><stop offset="0.35" stop-color="#6e3089"/><stop offset="0.47" stop-color="#793f92"/><stop offset="0.58" stop-color="#88559e"/><stop offset="0.68" stop-color="#9c71ae"/><stop offset="0.78" stop-color="#b493c2"/><stop offset="0.88" stop-color="#d0bcd9"/><stop offset="0.97" stop-color="#f1ebf3"/><stop offset="1" stop-color="#fff"/></linearGradient><linearGradient id="linear-gradient-7" x1="277.11" y1="246.26" x2="319.74" y2="172.85" gradientUnits="userSpaceOnUse"><stop offset="0" stop-color="#29235c"/><stop offset="0.21" stop-color="#2c265e"/><stop offset="0.35" stop-color="#352f65"/><stop offset="0.47" stop-color="#433e70"/><stop offset="0.58" stop-color="#595480"/><stop offset="0.69" stop-color="#747095"/><stop offset="0.78" stop-color="#9592af"/><stop offset="0.88" stop-color="#bdbbcd"/><stop offset="0.96" stop-color="#eaeaef"/><stop offset="1" stop-color="#fff"/></linearGradient><linearGradient id="linear-gradient-8" x1="316.02" y1="189.34" x2="316.02" y2="113.08" gradientUnits="userSpaceOnUse"><stop offset="0" stop-color="#1d71b7"/><stop offset="0.21" stop-color="#2073b8"/><stop offset="0.35" stop-color="#2978bb"/><stop offset="0.47" stop-color="#3882c0"/><stop offset="0.58" stop-color="#4e90c7"/><stop offset="0.68" stop-color="#6aa1d0"/><stop offset="0.78" stop-color="#8cb7db"/><stop offset="0.87" stop-color="#b5d1e8"/><stop offset="0.95" stop-color="#e4eef6"/><stop offset="1" stop-color="#fff"/></linearGradient><linearGradient id="linear-gradient-9" x1="321.12" y1="130.55" x2="288.26" y2="56.25" gradientUnits="userSpaceOnUse"><stop offset="0" stop-color="#00a099"/><stop offset="0.2" stop-color="#03a19a"/><stop offset="0.33" stop-color="#0ca49e"/><stop offset="0.44" stop-color="#1baaa4"/><stop offset="0.55" stop-color="#31b2ad"/><stop offset="0.65" stop-color="#4dbdb8"/><stop offset="0.74" stop-color="#70cac6"/><stop offset="0.83" stop-color="#99d9d6"/><stop offset="0.92" stop-color="#c8eae9"/><stop offset="1" stop-color="#fcfefe"/><stop offset="1" stop-color="#fff"/></linearGradient><linearGradient id="linear-gradient-10" x1="295.52" y1="71.87" x2="228.33" y2="23.33" gradientUnits="userSpaceOnUse"><stop offset="0" stop-color="#94c01f"/><stop offset="0.2" stop-color="#95c122"/><stop offset="0.34" stop-color="#9ac32b"/><stop offset="0.47" stop-color="#a1c83a"/><stop offset="0.58" stop-color="#abce50"/><stop offset="0.68" stop-color="#b9d66c"/><stop offset="0.78" stop-color="#c9df8e"/><stop offset="0.87" stop-color="#ddebb7"/><stop offset="0.96" stop-color="#f3f8e6"/><stop offset="1" stop-color="#fff"/></linearGradient><linearGradient id="linear-gradient-11" x1="181.66" y1="22.09" x2="116.14" y2="67.87" gradientUnits="userSpaceOnUse"><stop offset="0" stop-color="#fbe910"/><stop offset="0.2" stop-color="#fbe913"/><stop offset="0.34" stop-color="#fbea1c"/><stop offset="0.46" stop-color="#fbec2b"/><stop offset="0.56" stop-color="#fced41"/><stop offset="0.66" stop-color="#fcf05d"/><stop offset="0.76" stop-color="#fdf380"/><stop offset="0.85" stop-color="#fef7a9"/><stop offset="0.94" stop-color="#fefbd7"/><stop offset="1" stop-color="#fff"/></linearGradient><linearGradient id="linear-gradient-12" x1="243.72" y1="32.29" x2="167.1" y2="32.29" gradientUnits="userSpaceOnUse"><stop offset="0" stop-color="#dddb00"/><stop offset="0.2" stop-color="#dddb03"/><stop offset="0.33" stop-color="#dfdd0c"/><stop offset="0.44" stop-color="#e1df1b"/><stop offset="0.55" stop-color="#e4e231"/><stop offset="0.65" stop-color="#e7e64d"/><stop offset="0.74" stop-color="#eceb70"/><stop offset="0.83" stop-color="#f1f199"/><stop offset="0.92" stop-color="#f8f7c8"/><stop offset="1" stop-color="#fffffc"/><stop offset="1" stop-color="#fff"/></linearGradient></defs><title>Asset 1</title><g id="Layer_2" data-name="Layer 2"><g id="Capa_1" data-name="Capa 1"><path class="cls-1" d="M291.83,139.14c-.05-.56-.11-1.11-.17-1.67,0-.22-.06-.44-.08-.66-.07-.6-.15-1.2-.23-1.79,0-.18-.06-.37-.08-.55-.09-.63-.19-1.25-.29-1.88,0-.18-.06-.35-.1-.53-.11-.63-.22-1.26-.35-1.89,0-.21-.09-.42-.13-.63-.12-.59-.24-1.17-.37-1.76-.08-.34-.16-.68-.24-1s-.21-.9-.32-1.35-.28-1-.42-1.57c-.07-.26-.14-.53-.21-.79q-.3-1.05-.62-2.1l-.07-.24a91.7,91.7,0,0,0-3.37-9.1l0-.07c-.3-.69-.61-1.37-.92-2.05q-1.75-3.78-3.86-7.46c-1.55-2.68-3.23-5.24-5-7.71-.49-.68-1-1.35-1.5-2s-1-1.29-1.5-1.92-1.06-1.3-1.61-1.94-1.06-1.24-1.61-1.84-1.11-1.22-1.68-1.82-1.16-1.21-1.75-1.8-1.14-1.12-1.72-1.67-1.26-1.18-1.9-1.76-1.16-1-1.75-1.53-1.35-1.14-2-1.69-1.19-.94-1.8-1.4-1.43-1.08-2.15-1.6c-2.45-1.76-5-3.42-7.65-5s-5.2-2.83-7.85-4l-1.57-.7-.66-.28-1.61-.67-.68-.27-1.6-.62-.82-.3L230,61l-1.18-.39-1.14-.37-1.8-.54-.54-.16a91.59,91.59,0,0,0-16.83-3.1h0c-2.71-.24-5.45-.37-8.22-.37s-5.66.14-8.44.39l-2.18.22h-.11A91.48,91.48,0,0,0,180,58.3l-.27.06-2.09.5-.89.24-1.46.39-1.53.45-.81.24-2,.64-.34.11-2.11.75-.19.07q-1.05.39-2.09.81l-.19.08-2,.83-.29.12-1.86.83q-3.86,1.77-7.62,3.93c-2.67,1.54-5.21,3.21-7.66,5-.72.52-1.43,1-2.14,1.59s-1.22.93-1.81,1.41-1.36,1.11-2,1.69-1.18,1-1.76,1.53-1.27,1.16-1.89,1.75-1.16,1.11-1.73,1.68-1.16,1.18-1.73,1.78-1.14,1.22-1.7,1.84-1.06,1.2-1.58,1.81-1.11,1.31-1.64,2-1,1.24-1.45,1.86-1,1.39-1.55,2.09c-1.76,2.46-3.44,5-5,7.68q-2.13,3.7-3.88,7.51-.46,1-.89,2l0,.1a91.41,91.41,0,0,0-3.37,9.09l0,.12q-.34,1.1-.66,2.21c-.07.24-.13.48-.19.72-.15.54-.3,1.09-.44,1.64s-.22.91-.33,1.36-.16.67-.24,1c-.14.61-.26,1.22-.39,1.84,0,.18-.08.36-.11.55-.14.69-.26,1.37-.38,2.06l-.06.34c-.12.69-.22,1.39-.33,2.09,0,.11,0,.23-.05.34-.1.67-.18,1.35-.26,2,0,.14,0,.28-.05.42-.07.65-.14,1.29-.2,1.94-.27,2.84-.41,5.72-.41,8.64s.14,5.73.4,8.55c.06.68.13,1.37.21,2.05l0,.24c.09.74.18,1.47.28,2.2v.07q.51,3.59,1.32,7.15l.06.24q.24,1.07.51,2.13c.07.27.14.53.21.79.14.52.27,1,.42,1.56s.27.92.41,1.38.18.63.28,1c.18.59.38,1.18.57,1.77l.18.56c.22.64.45,1.29.68,1.92l.14.38c.24.65.49,1.29.74,1.92l.14.37c.25.61.5,1.22.76,1.83l.19.45c.25.58.51,1.15.77,1.72,1.2,2.61,2.52,5.19,4,7.73s3.21,5.21,5,7.67c.51.71,1,1.42,1.57,2.12s.94,1.23,1.43,1.83,1.11,1.35,1.67,2,1,1.19,1.54,1.77,1.15,1.27,1.74,1.89,1.11,1.16,1.68,1.73,1.18,1.16,1.79,1.74,1.21,1.14,1.83,1.69,1.21,1.07,1.83,1.59,1.3,1.1,2,1.63,1.26,1,1.9,1.48,1.36,1,2.05,1.52c2.46,1.77,5,3.45,7.69,5q3.65,2.11,7.41,3.84a91.74,91.74,0,0,0,13.65,5l.06,0q1.14.32,2.29.61l.69.17,1.68.4,1.23.26,1.16.24,1.51.28.9.16,1.65.26.78.12,1.68.22.77.1,1.65.17c2.92.28,5.88.43,8.87.43s5.81-.15,8.66-.41l1.91-.2.41-.05,2-.26.28,0,2.14-.33.25,0,2.16-.4.35-.07,2-.43.73-.17,1.63-.39,1.33-.36,1-.27,1.91-.57.42-.13q1.12-.35,2.22-.73l.1,0q2.29-.78,4.52-1.68l.07,0q1-.42,2.06-.86l.21-.09,1.92-.86c2.56-1.18,5.08-2.47,7.57-3.91,2.68-1.55,5.23-3.22,7.69-5,.69-.5,1.38-1,2.06-1.53s1.26-1,1.88-1.47,1.32-1.08,2-1.64,1.21-1,1.81-1.58,1.24-1.13,1.85-1.71,1.19-1.14,1.77-1.72,1.14-1.16,1.7-1.75,1.16-1.24,1.73-1.87,1-1.18,1.55-1.79,1.12-1.33,1.66-2,1-1.22,1.44-1.85,1.05-1.39,1.56-2.1c1.76-2.46,3.44-5,5-7.67s2.83-5.21,4-7.87c.24-.52.47-1,.7-1.56l.25-.6c.24-.56.47-1.12.7-1.68l.2-.52c.23-.59.46-1.18.69-1.78l.18-.51c.22-.6.43-1.19.64-1.8l.21-.65c.19-.56.37-1.11.55-1.68.11-.35.21-.69.31-1s.26-.86.39-1.3.29-1.07.43-1.6c.07-.25.14-.5.2-.75q.27-1.06.51-2.13l.06-.24q.81-3.59,1.33-7.21h0q.16-1.15.3-2.3l0-.14q.12-1.08.22-2.16c.26-2.79.39-5.6.39-8.46S292.11,142.05,291.83,139.14Z"/><path class="cls-2" d="M173,60.19l.81-.24Z"/><path class="cls-2" d="M177.67,58.86l2.09-.5Z"/><path class="cls-2" d="M180,58.3a91.48,91.48,0,0,1,9.54-1.63A91.55,91.55,0,0,0,180,58.3Z"/><path class="cls-2" d="M162.36,4.92,162,5l.37-.09Z"/><path class="cls-2" d="M170.67,60.94l.34-.11Z"/><path class="cls-2" d="M95.37,43.6h0l.28-.28Z"/><path class="cls-2" d="M189.69,56.66l2.18-.22Z"/><path class="cls-2" d="M175.32,59.5l1.46-.39Z"/><path class="cls-2" d="M168.37,61.76l.19-.07Z"/><path class="cls-2" d="M128.66,90.39c.54-.67,1.09-1.33,1.64-2Q129.47,89.39,128.66,90.39Z"/><path class="cls-2" d="M135.31,83q.85-.85,1.73-1.68C136.45,81.85,135.88,82.41,135.31,83Z"/><path class="cls-2" d="M125.65,94.35c.5-.7,1-1.4,1.55-2.09C126.68,92.95,126.16,93.64,125.65,94.35Z"/><path class="cls-2" d="M131.88,86.6q.84-.93,1.7-1.84Q132.71,85.66,131.88,86.6Z"/><path class="cls-2" d="M166.08,62.65l.19-.08Z"/><path class="cls-2" d="M142.72,76.33c.59-.48,1.2-.95,1.81-1.41C143.93,75.38,143.32,75.85,142.72,76.33Z"/><path class="cls-2" d="M138.93,79.55q.87-.78,1.76-1.53C140.1,78.52,139.51,79,138.93,79.55Z"/><path class="cls-2" d="M163.81,63.6l.29-.12Z"/><path class="cls-3" d="M108.76,139.36c.06-.65.12-1.29.2-1.94C108.89,138.07,108.82,138.72,108.76,139.36Z"/><path class="cls-3" d="M109.33,134.65c.1-.7.21-1.39.33-2.09C109.54,133.25,109.43,133.95,109.33,134.65Z"/><path class="cls-3" d="M127.2,92.26c.48-.63,1-1.25,1.45-1.86Q127.92,91.31,127.2,92.26Z"/><path class="cls-3" d="M130.3,88.41c.52-.61,1-1.22,1.58-1.81C131.34,87.2,130.82,87.8,130.3,88.41Z"/><path class="cls-3" d="M109,137c.08-.68.17-1.35.26-2C109.18,135.66,109.09,136.33,109,137Z"/><path class="cls-3" d="M110.21,129.61c.13-.61.25-1.23.39-1.84C110.46,128.38,110.33,129,110.21,129.61Z"/><path class="cls-3" d="M110.84,126.77c.11-.45.21-.91.33-1.36C111,125.85,110.94,126.31,110.84,126.77Z"/><path class="cls-3" d="M109.72,132.22c.12-.69.24-1.37.38-2.06C110,130.84,109.83,131.53,109.72,132.22Z"/><path class="cls-3" d="M112.45,120.84l0-.12Z"/><path class="cls-3" d="M111.6,123.76c.06-.24.13-.48.19-.72C111.73,123.29,111.67,123.53,111.6,123.76Z"/><path class="cls-3" d="M115.85,111.62l0-.1Z"/><path class="cls-3" d="M137,81.29q.94-.89,1.89-1.75Q138,80.41,137,81.29Z"/><path class="cls-3" d="M57.23,110.06h0c0-.13.06-.26.1-.39Z"/><path class="cls-3" d="M140.69,78c.67-.57,1.35-1.14,2-1.69Q141.69,77.16,140.69,78Z"/><path class="cls-3" d="M144.54,74.92c.71-.54,1.42-1.07,2.14-1.59C145.95,73.85,145.24,74.38,144.54,74.92Z"/><path class="cls-3" d="M95.91,43.06l-.26.26.26-.26Z"/><path class="cls-3" d="M133.58,84.76c.57-.6,1.15-1.2,1.73-1.78Q134.43,83.85,133.58,84.76Z"/><path class="cls-4" d="M95.92,43.07l-.26.26-.28.28a148.43,148.43,0,0,0-37.94,65.71h59.45l-.09.21q1.75-3.8,3.88-7.51c1.54-2.67,3.22-5.22,5-7.68.51-.71,1-1.4,1.55-2.09s1-1.25,1.45-1.86,1.09-1.33,1.64-2,1-1.21,1.58-1.81,1.12-1.23,1.7-1.84,1.14-1.2,1.73-1.78,1.15-1.13,1.73-1.68,1.25-1.17,1.89-1.75,1.17-1,1.76-1.53,1.35-1.13,2-1.69,1.2-.95,1.81-1.41,1.41-1.07,2.14-1.59c.25-.18.48-.37.73-.54Z"/><path class="cls-5" d="M115.73,184.08c-.26-.61-.52-1.21-.76-1.83C115.21,182.86,115.47,183.47,115.73,184.08Z"/><path class="cls-5" d="M112.49,120.71a91.41,91.41,0,0,1,3.37-9.09A91.45,91.45,0,0,0,112.49,120.71Z"/><path class="cls-5" d="M111.79,123q.31-1.11.66-2.21Q112.11,121.94,111.79,123Z"/><path class="cls-5" d="M111.39,171.44c-.07-.26-.14-.53-.21-.79C111.24,170.91,111.32,171.17,111.39,171.44Z"/><path class="cls-5" d="M115.89,111.53q.44-1,.89-2Q116.33,110.53,115.89,111.53Z"/><path class="cls-5" d="M113.94,179.58c-.23-.64-.46-1.28-.68-1.92C113.48,178.3,113.71,178.94,113.94,179.58Z"/><path class="cls-5" d="M110.66,168.51l-.06-.24Z"/><path class="cls-5" d="M111.16,125.4c.14-.55.29-1.09.44-1.64C111.45,124.31,111.3,124.86,111.16,125.4Z"/><path class="cls-5" d="M112.22,174.38c-.14-.46-.28-.92-.41-1.38C111.94,173.46,112.08,173.92,112.22,174.38Z"/><path class="cls-5" d="M113.08,177.1c-.2-.59-.39-1.17-.57-1.77C112.68,175.92,112.88,176.51,113.08,177.1Z"/><path class="cls-5" d="M114.82,181.88c-.25-.64-.5-1.28-.74-1.92C114.32,180.6,114.57,181.24,114.82,181.88Z"/><path class="cls-5" d="M109,158.85l0-.24Z"/><path class="cls-5" d="M109,137.43c0-.14,0-.28.05-.42C109,137.15,109,137.29,109,137.43Z"/><path class="cls-5" d="M109.28,135c0-.11,0-.23.05-.34C109.31,134.76,109.29,134.87,109.28,135Z"/><path class="cls-5" d="M110.09,130.16c0-.18.08-.37.11-.55Z"/><path class="cls-5" d="M116.69,186.25c-.26-.57-.52-1.15-.77-1.72C116.17,185.1,116.43,185.68,116.69,186.25Z"/><path class="cls-5" d="M57.43,109.32l-.09.35.1-.35Z"/><path class="cls-5" d="M109.29,161.12v0Z"/><path class="cls-5" d="M57.43,186.68h0l-.11-.39C57.36,186.42,57.39,186.55,57.43,186.68Z"/><path class="cls-5" d="M109.65,132.56l.06-.34C109.69,132.33,109.67,132.44,109.65,132.56Z"/><path class="cls-5" d="M110.6,127.77c.08-.34.16-.67.24-1C110.76,127.1,110.67,127.43,110.6,127.77Z"/><path class="cls-6" d="M57.44,109.32l-.1.35c0,.13-.07.26-.1.39a148.42,148.42,0,0,0,0,75.88l51.48-29.72c0,.11,0,.22,0,.33-.26-2.81-.4-5.66-.4-8.55s.14-5.79.41-8.64c.06-.65.12-1.29.2-1.94,0-.14,0-.28.05-.42.08-.68.17-1.35.26-2,0-.11,0-.23.05-.34.1-.7.21-1.39.33-2.09,0-.11,0-.23.06-.34.12-.69.24-1.38.38-2.06l.11-.55c.13-.62.25-1.23.39-1.84.08-.34.16-.67.24-1s.21-.91.33-1.36.29-1.09.44-1.64c.07-.24.13-.48.19-.72q.31-1.11.66-2.21l0-.12a91.45,91.45,0,0,1,3.37-9.09l0-.1q.43-1,.89-2l.09-.21Z"/><path class="cls-7" d="M57.23,185.95l.1.34-.09-.35Z"/><path class="cls-7" d="M135.28,213q-.85-.85-1.68-1.73Q134.43,212.14,135.28,213Z"/><path class="cls-7" d="M109.28,161c-.1-.73-.2-1.47-.28-2.2Q109.13,160,109.28,161Z"/><path class="cls-7" d="M138.9,216.43q-.93-.83-1.83-1.69Q138,215.59,138.9,216.43Z"/><path class="cls-7" d="M95.91,252.94h0l-.28-.28Z"/><path class="cls-7" d="M128.64,205.59c-.48-.6-1-1.21-1.43-1.83Q127.92,204.69,128.64,205.59Z"/><path class="cls-7" d="M142.69,219.64c-.66-.53-1.31-1.08-2-1.63Q141.69,218.84,142.69,219.64Z"/><path class="cls-7" d="M111.18,170.64q-.27-1.06-.51-2.13C110.83,169.23,111,169.94,111.18,170.64Z"/><path class="cls-7" d="M115.92,184.53l-.19-.45Z"/><path class="cls-7" d="M111.81,173c-.15-.52-.28-1-.42-1.56C111.53,172,111.66,172.48,111.81,173Z"/><path class="cls-7" d="M146.64,222.65c-.69-.5-1.37-1-2.05-1.52C145.26,221.64,145.94,222.15,146.64,222.65Z"/><path class="cls-7" d="M131.86,209.38c-.52-.58-1-1.17-1.54-1.77Q131.08,208.51,131.86,209.38Z"/><path class="cls-7" d="M113.26,177.66l-.18-.56Z"/><path class="cls-7" d="M114.08,180l-.14-.38Z"/><path class="cls-7" d="M110.61,168.28q-.8-3.57-1.32-7.15Q109.81,164.75,110.61,168.28Z"/><path class="cls-7" d="M109,158.6c-.08-.69-.15-1.37-.21-2.05C108.82,157.23,108.89,157.92,109,158.6Z"/><path class="cls-7" d="M112.5,175.33c-.1-.32-.19-.63-.28-1C112.31,174.7,112.4,175,112.5,175.33Z"/><path class="cls-7" d="M115,182.25l-.14-.37Z"/><path class="cls-8" d="M120.67,194c-1.46-2.54-2.79-5.12-4-7.73-.26-.57-.52-1.15-.77-1.72l-.19-.45c-.26-.61-.52-1.22-.76-1.83l-.14-.37c-.25-.64-.5-1.28-.74-1.92l-.14-.38c-.23-.64-.46-1.28-.68-1.92l-.18-.56c-.2-.59-.39-1.18-.57-1.77-.1-.32-.19-.63-.28-1s-.28-.92-.41-1.38-.28-1-.42-1.56c-.07-.26-.14-.53-.21-.79-.18-.71-.35-1.42-.51-2.13l-.06-.24q-.8-3.53-1.32-7.15V161q-.16-1.1-.28-2.2l0-.24c-.08-.68-.15-1.37-.21-2.05,0-.11,0-.22,0-.33L57.24,185.94l.09.35.11.39a148.46,148.46,0,0,0,37.94,65.71l29.72-51.48c.18.25.37.49.55.74C123.89,199.19,122.21,196.65,120.67,194Z"/><path class="cls-9" d="M189,239.26l-1.68-.22Z"/><path class="cls-9" d="M140.73,218c-.62-.52-1.23-1.05-1.83-1.59C139.5,217,140.11,217.5,140.73,218Z"/><path class="cls-9" d="M178.43,237.32l-.69-.17Z"/><path class="cls-9" d="M175.45,236.54l-.06,0Z"/><path class="cls-9" d="M186.57,238.92l-1.65-.26Z"/><path class="cls-9" d="M144.58,221.12c-.64-.49-1.27-1-1.9-1.48C143.31,220.15,143.95,220.64,144.58,221.12Z"/><path class="cls-9" d="M137.07,214.74q-.91-.86-1.79-1.74C135.87,213.59,136.47,214.17,137.07,214.74Z"/><path class="cls-9" d="M181.34,238l-1.23-.26Z"/><path class="cls-9" d="M130.32,207.61c-.57-.67-1.13-1.34-1.67-2Q129.47,206.62,130.32,207.61Z"/><path class="cls-9" d="M127.22,203.76c-.53-.7-1.06-1.4-1.57-2.12C126.16,202.36,126.69,203.07,127.22,203.76Z"/><path class="cls-9" d="M133.6,211.27q-.88-.93-1.74-1.89Q132.72,210.34,133.6,211.27Z"/><path class="cls-9" d="M191.44,239.52l-1.65-.17Z"/><path class="cls-9" d="M184,238.5l-1.51-.28Z"/><path class="cls-9" d="M162.36,291.08h0l-.44-.11Z"/><path class="cls-9" d="M95.37,252.4l.26.26-.26-.26Z"/><path class="cls-10" d="M154.33,227.64c-2.68-1.55-5.23-3.23-7.69-5-.69-.5-1.37-1-2.05-1.52s-1.27-1-1.9-1.48-1.32-1.08-2-1.63-1.22-1.05-1.83-1.59-1.23-1.12-1.83-1.69-1.2-1.15-1.79-1.74-1.13-1.15-1.68-1.73-1.17-1.25-1.74-1.89-1-1.17-1.54-1.77-1.13-1.34-1.67-2-1-1.21-1.43-1.83-1.06-1.4-1.57-2.12c-.18-.25-.37-.49-.55-.74L95.38,252.39l.26.26.28.28a148.44,148.44,0,0,0,65.71,37.94V231.43l.11,0Q158,229.74,154.33,227.64Z"/><path class="cls-11" d="M175.39,236.52a91.74,91.74,0,0,1-13.65-5A91.38,91.38,0,0,0,175.39,236.52Z"/><path class="cls-11" d="M177.74,237.15q-1.15-.29-2.29-.61C176.21,236.75,177,237,177.74,237.15Z"/><path class="cls-11" d="M180.12,237.72l-1.68-.4Z"/><path class="cls-11" d="M238.71,231.55l-1.92.86C237.44,232.13,238.08,231.84,238.71,231.55Z"/><path class="cls-11" d="M182.51,238.22l-1.16-.24Z"/><path class="cls-11" d="M213.62,239l-.28,0Z"/><path class="cls-11" d="M216,238.61l-.25,0Z"/><path class="cls-11" d="M211.3,239.29l-.41.05Z"/><path class="cls-11" d="M239,290.88h0l-.37.11Z"/><path class="cls-11" d="M161.63,290.88l.3.08-.3-.09Z"/><path class="cls-11" d="M236.59,232.5q-1,.44-2.06.86Q235.56,232.94,236.59,232.5Z"/><path class="cls-11" d="M187.34,239l-.78-.12Z"/><path class="cls-11" d="M189.79,239.35l-.77-.1Z"/><path class="cls-11" d="M224.26,236.78l-1.33.36Z"/><path class="cls-11" d="M227.19,235.94l-1.91.57Z"/><path class="cls-11" d="M229.84,235.09q-1.1.38-2.22.73Q228.73,235.47,229.84,235.09Z"/><path class="cls-11" d="M234.45,233.38q-2.23.89-4.52,1.68Q232.21,234.29,234.45,233.38Z"/><path class="cls-11" d="M221.29,237.53l-.73.17Z"/><path class="cls-11" d="M218.51,238.14l-.35.07Z"/><path class="cls-11" d="M184.92,238.67l-.9-.16Z"/><path class="cls-12" d="M208.53,239.59l.45,0c-2.85.27-5.74.41-8.66.41s-6-.15-8.87-.43l-1.65-.17-.77-.1-1.68-.22-.78-.12-1.65-.26-.9-.16-1.51-.28-1.16-.24-1.23-.26-1.68-.4-.69-.17c-.76-.19-1.53-.4-2.29-.61l-.06,0a91.38,91.38,0,0,1-13.65-5l-.11,0v59.45l.3.09.44.11a148.42,148.42,0,0,0,75.88,0Z"/><path class="cls-2" d="M238.25,291.08l.36-.1-.37.09Z"/><path class="cls-2" d="M261.71,216.43q-.89.8-1.81,1.58Q260.81,217.23,261.71,216.43Z"/><path class="cls-2" d="M236.8,232.41l-.21.09Z"/><path class="cls-2" d="M257.92,219.65c-.62.5-1.25,1-1.88,1.47C256.67,220.63,257.3,220.15,257.92,219.65Z"/><path class="cls-2" d="M234.52,233.36l-.07,0Z"/><path class="cls-2" d="M229.93,235.06l-.1,0Z"/><path class="cls-2" d="M272,205.6q-.82,1-1.66,2Q271.15,206.61,272,205.6Z"/><path class="cls-2" d="M275,201.65c-.51.71-1,1.41-1.56,2.1C273.93,203.06,274.46,202.36,275,201.65Z"/><path class="cls-2" d="M227.61,235.82l-.42.13Z"/><path class="cls-2" d="M265.33,213q-.87.87-1.77,1.72Q264.45,213.88,265.33,213Z"/><path class="cls-2" d="M268.75,209.39q-.85.95-1.73,1.87Q267.9,210.34,268.75,209.39Z"/><path class="cls-2" d="M225.28,236.51l-1,.27Z"/><path class="cls-2" d="M215.76,238.65l-2.14.33Z"/><path class="cls-2" d="M305.25,252.4h0l-.27.28Z"/><path class="cls-2" d="M210.88,239.35l-1.91.2Z"/><path class="cls-2" d="M213.33,239l-2,.26Z"/><path class="cls-2" d="M218.17,238.21l-2.16.4Z"/><path class="cls-2" d="M222.92,237.14l-1.63.39Z"/><path class="cls-2" d="M220.55,237.71l-2,.43Z"/><path class="cls-13" d="M253.22,223.21l.76-.57c-2.46,1.77-5,3.44-7.69,5-2.49,1.44-5,2.73-7.57,3.91-.64.29-1.28.58-1.92.86l-.21.09q-1,.44-2.06.86l-.07,0q-2.25.9-4.52,1.68l-.1,0q-1.11.38-2.22.73l-.42.13-1.91.57-1,.27-1.33.36-1.63.39-.73.17-2,.43-.35.07-2.16.4-.25,0-2.14.33-.28,0-2,.26-.41.05-1.91.2-.45,0,29.72,51.48.37-.09.37-.11a148.41,148.41,0,0,0,65.71-37.94Z"/><path class="cls-3" d="M290,168.52q-.24,1.07-.51,2.13C289.62,169.94,289.79,169.23,290,168.52Z"/><path class="cls-3" d="M289.24,171.4c-.14.54-.28,1.07-.43,1.6C289,172.47,289.1,171.93,289.24,171.4Z"/><path class="cls-3" d="M288.42,174.3c-.1.35-.2.69-.31,1C288.22,175,288.32,174.65,288.42,174.3Z"/><path class="cls-3" d="M287.57,177l-.21.65Z"/><path class="cls-3" d="M291.34,161.07q-.52,3.61-1.33,7.21Q290.81,164.72,291.34,161.07Z"/><path class="cls-3" d="M304.71,252.94l.26-.27-.27.27Z"/><path class="cls-3" d="M291.63,158.76q-.13,1.15-.3,2.3Q291.5,159.91,291.63,158.76Z"/><path class="cls-3" d="M291.87,156.46q-.1,1.08-.22,2.16C291.73,157.9,291.81,157.18,291.87,156.46Z"/><path class="cls-3" d="M256,221.12c-.68.52-1.37,1-2.06,1.53C254.68,222.14,255.36,221.63,256,221.12Z"/><path class="cls-3" d="M270.31,207.6q-.77.9-1.55,1.79Q269.54,208.5,270.31,207.6Z"/><path class="cls-3" d="M267,211.26q-.84.89-1.7,1.75Q266.19,212.14,267,211.26Z"/><path class="cls-3" d="M259.9,218c-.65.55-1.31,1.1-2,1.64C258.59,219.11,259.25,218.56,259.9,218Z"/><path class="cls-3" d="M284.94,184l-.25.6Z"/><path class="cls-3" d="M273.41,203.75c-.47.62-1,1.24-1.44,1.85C272.46,205,272.93,204.37,273.41,203.75Z"/><path class="cls-3" d="M285.85,181.75l-.2.52Z"/><path class="cls-3" d="M286.72,179.46l-.18.51Z"/><path class="cls-3" d="M263.56,214.73q-.91.87-1.85,1.71Q262.65,215.59,263.56,214.73Z"/><path class="cls-3" d="M343.38,185.94l-.09.37.1-.36Z"/><path class="cls-14" d="M283.74,186.68l.26-.57c-1.21,2.66-2.55,5.29-4,7.87s-3.22,5.22-5,7.67c-.51.71-1,1.41-1.56,2.1s-.95,1.24-1.44,1.85-1.1,1.34-1.66,2-1,1.2-1.55,1.79-1.14,1.25-1.73,1.87-1.12,1.17-1.7,1.75-1.17,1.15-1.77,1.72-1.22,1.15-1.85,1.71-1.2,1.06-1.81,1.58-1.31,1.1-2,1.64-1.25,1-1.88,1.47-1.36,1-2.06,1.53l-.76.57,51.48,29.72.27-.27.27-.28a148.43,148.43,0,0,0,37.94-65.71Z"/><path class="cls-5" d="M289.78,126.75c.08.34.17.68.24,1C289.94,127.43,289.86,127.09,289.78,126.75Z"/><path class="cls-5" d="M286.53,180c-.22.6-.45,1.19-.69,1.78C286.08,181.16,286.31,180.57,286.53,180Z"/><path class="cls-5" d="M285.64,182.27c-.23.57-.46,1.13-.7,1.68C285.18,183.39,285.42,182.83,285.64,182.27Z"/><path class="cls-5" d="M287.36,177.66c-.21.6-.42,1.2-.64,1.8C286.94,178.86,287.15,178.26,287.36,177.66Z"/><path class="cls-5" d="M288.12,175.34c-.18.56-.36,1.12-.55,1.68C287.75,176.46,287.94,175.9,288.12,175.34Z"/><path class="cls-5" d="M288.2,120.94q.32,1,.62,2.1C288.62,122.34,288.41,121.64,288.2,120.94Z"/><path class="cls-5" d="M284.76,111.61a91.7,91.7,0,0,1,3.37,9.1A91.29,91.29,0,0,0,284.76,111.61Z"/><path class="cls-5" d="M283.81,109.48c.31.68.62,1.36.92,2.05C284.43,110.85,284.12,110.16,283.81,109.48Z"/><path class="cls-5" d="M289,123.83c.14.52.29,1,.42,1.57C289.32,124.88,289.18,124.35,289,123.83Z"/><path class="cls-5" d="M284.69,184.55c-.23.52-.46,1-.7,1.56C284.23,185.59,284.46,185.07,284.69,184.55Z"/><path class="cls-5" d="M290.39,129.53c0,.21.09.42.13.63C290.48,130,290.44,129.74,290.39,129.53Z"/><path class="cls-5" d="M291.65,158.62l0,.14Z"/><path class="cls-5" d="M343.19,109.32h0l.11.37Z"/><path class="cls-5" d="M288.81,173c-.12.43-.26.87-.39,1.3C288.55,173.87,288.69,173.44,288.81,173Z"/><path class="cls-5" d="M291.26,134.46c0,.18.06.37.08.55C291.32,134.83,291.29,134.64,291.26,134.46Z"/><path class="cls-5" d="M291.58,136.8c0,.22.06.44.08.66C291.64,137.25,291.61,137,291.58,136.8Z"/><path class="cls-5" d="M290.87,132c0,.18.07.35.1.53C290.94,132.4,290.9,132.22,290.87,132Z"/><path class="cls-5" d="M291.34,161.06h0Z"/><path class="cls-5" d="M289.44,170.64c-.06.25-.13.5-.2.75C289.31,171.15,289.38,170.9,289.44,170.64Z"/><path class="cls-5" d="M290,168.27l-.06.24Z"/><path class="cls-5" d="M343.19,186.68l.09-.37-.11.37Z"/><path class="cls-15" d="M343.38,110.06,291.9,139.78c0-.21,0-.43-.07-.65.28,2.92.43,5.87.43,8.86s-.14,5.67-.39,8.46c-.07.72-.14,1.45-.22,2.16l0,.14q-.13,1.15-.3,2.3h0q-.52,3.65-1.33,7.21l-.06.24c-.16.71-.33,1.42-.51,2.13-.06.25-.13.5-.2.75-.14.54-.28,1.07-.43,1.6s-.26.87-.39,1.3-.2.69-.31,1c-.17.56-.36,1.12-.55,1.68l-.21.65c-.21.6-.42,1.2-.64,1.8l-.18.51c-.22.59-.45,1.19-.69,1.78l-.2.52c-.23.56-.46,1.12-.7,1.68l-.25.6c-.23.52-.46,1-.7,1.56l-.26.57h59.44l.11-.37.09-.37a148.45,148.45,0,0,0,0-75.88Z"/><path class="cls-7" d="M289.45,125.4c.11.45.22.9.32,1.35C289.67,126.3,289.57,125.85,289.45,125.4Z"/><path class="cls-7" d="M291.35,135c.09.6.16,1.2.23,1.79C291.51,136.2,291.43,135.6,291.35,135Z"/><path class="cls-7" d="M253.94,73.32c.73.52,1.44,1.06,2.15,1.6C255.38,74.38,254.66,73.85,253.94,73.32Z"/><path class="cls-7" d="M288.82,123c.07.26.14.52.21.79C289,123.57,288.9,123.3,288.82,123Z"/><path class="cls-7" d="M290,127.77c.13.58.25,1.17.37,1.76C290.27,128.94,290.15,128.35,290,127.77Z"/><path class="cls-7" d="M291.66,137.47c.06.56.12,1.11.17,1.67C291.78,138.58,291.73,138,291.66,137.47Z"/><path class="cls-7" d="M290.53,130.16c.12.63.24,1.26.35,1.89C290.76,131.42,290.65,130.79,290.53,130.16Z"/><path class="cls-7" d="M291,132.58c.11.63.2,1.25.29,1.88C291.17,133.83,291.07,133.2,291,132.58Z"/><path class="cls-7" d="M343.39,110.06l-.1-.36c0,.12.06.24.09.36Z"/><path class="cls-7" d="M261.68,79.55c.64.57,1.27,1.16,1.9,1.76Q262.65,80.41,261.68,79.55Z"/><path class="cls-7" d="M288.13,120.71l.07.24Z"/><path class="cls-7" d="M271.95,90.37c.51.63,1,1.27,1.5,1.92C273,91.65,272.45,91,271.95,90.37Z"/><path class="cls-7" d="M265.3,83c.59.59,1.17,1.19,1.75,1.8Q266.19,83.86,265.3,83Z"/><path class="cls-7" d="M304.71,43.06h0l.28.27Z"/><path class="cls-7" d="M268.73,86.59q.81.91,1.61,1.84Q269.55,87.5,268.73,86.59Z"/><path class="cls-7" d="M284.73,111.53l0,.07Z"/><path class="cls-7" d="M257.89,76.33q1,.83,2,1.69C259.26,77.45,258.58,76.88,257.89,76.33Z"/><path class="cls-16" d="M343.29,109.7l-.11-.37a148.41,148.41,0,0,0-37.94-65.71L275.52,95.09c-.18-.27-.39-.52-.58-.78,1.77,2.47,3.45,5,5,7.71q2.12,3.68,3.86,7.46c.31.68.62,1.36.92,2.05l0,.07a91.29,91.29,0,0,1,3.37,9.1l.07.24c.21.7.42,1.4.62,2.1.07.26.14.52.21.79.14.52.29,1,.42,1.57s.22.9.32,1.35.17.68.24,1c.13.58.25,1.17.37,1.76,0,.21.09.42.13.63.12.63.24,1.26.35,1.89,0,.18.07.35.1.53.11.62.2,1.25.29,1.88,0,.18.06.37.08.55.08.6.16,1.19.23,1.79,0,.22.06.44.08.66.06.56.12,1.11.17,1.67,0,.21,0,.43.07.65l51.48-29.72C343.35,109.94,343.32,109.82,343.29,109.7Z"/><path class="cls-9" d="M225.89,59.67l1.8.54Z"/><path class="cls-9" d="M305.25,43.6l-.27-.26.27.27Z"/><path class="cls-9" d="M270.33,88.43q.82,1,1.61,1.94C271.42,89.71,270.88,89.07,270.33,88.43Z"/><path class="cls-9" d="M259.93,78q.89.75,1.75,1.53Q260.82,78.77,259.93,78Z"/><path class="cls-9" d="M273.44,92.29c.51.67,1,1.34,1.5,2C274.45,93.63,273.95,93,273.44,92.29Z"/><path class="cls-9" d="M236.2,63.34l.66.28Z"/><path class="cls-9" d="M256.09,74.92q.91.69,1.8,1.4C257.3,75.85,256.69,75.39,256.09,74.92Z"/><path class="cls-9" d="M267.05,84.77q.85.9,1.68,1.82Q267.9,85.66,267.05,84.77Z"/><path class="cls-9" d="M263.58,81.3q.87.83,1.72,1.67Q264.45,82.12,263.58,81.3Z"/><path class="cls-9" d="M231.48,61.49l.82.3Z"/><path class="cls-9" d="M225.35,59.51a91.48,91.48,0,0,0-16.83-3.1h0A91.59,91.59,0,0,1,225.35,59.51Z"/><path class="cls-9" d="M233.91,62.4l.68.27Z"/><path class="cls-9" d="M228.83,60.58,230,61Z"/><path class="cls-9" d="M238.25,4.92h0l.29.07Z"/><path class="cls-17" d="M305,43.34l-.28-.27A148.39,148.39,0,0,0,239,5.13V64.57l-.55-.25c2.65,1.21,5.28,2.55,7.85,4s5.2,3.21,7.65,5c.73.52,1.44,1.06,2.15,1.6s1.21.93,1.8,1.4,1.37,1.12,2,1.69,1.17,1,1.75,1.53,1.28,1.16,1.9,1.76,1.15,1.1,1.72,1.67,1.17,1.19,1.75,1.8,1.13,1.2,1.68,1.82,1.08,1.22,1.61,1.84,1.08,1.29,1.61,1.94,1,1.27,1.5,1.92,1,1.34,1.5,2c.19.26.39.51.58.78l29.72-51.48Z"/><path class="cls-11" d="M161.63,5.12h0L162,5Z"/><path class="cls-11" d="M234.59,62.67l1.61.67Z"/><path class="cls-11" d="M173.79,59.95l1.53-.45Z"/><path class="cls-11" d="M176.78,59.1l.89-.24Z"/><path class="cls-11" d="M179.76,58.36l.27-.06Z"/><path class="cls-11" d="M171,60.83l2-.64C172.33,60.39,171.67,60.61,171,60.83Z"/><path class="cls-11" d="M164.1,63.47l2-.83C165.42,62.91,164.76,63.19,164.1,63.47Z"/><path class="cls-11" d="M168.56,61.7l2.11-.75Q169.61,61.3,168.56,61.7Z"/><path class="cls-11" d="M166.27,62.57q1-.42,2.09-.81C167.67,62,167,62.3,166.27,62.57Z"/><path class="cls-11" d="M161.95,64.43l1.86-.83Z"/><path class="cls-11" d="M189.58,56.67h0Z"/><path class="cls-11" d="M230,61l1.48.53Z"/><path class="cls-11" d="M232.31,61.79l1.6.62Z"/><path class="cls-11" d="M236.87,63.62l1.57.7Z"/><path class="cls-11" d="M239,5.12,238.54,5l.45.13Z"/><path class="cls-11" d="M227.69,60.21l1.14.37Z"/><path class="cls-11" d="M225.35,59.51l.54.16Z"/><path class="cls-18" d="M162.37,4.93,162,5l-.37.11A148.47,148.47,0,0,0,95.92,43.07L147.4,72.79c-.25.17-.48.36-.73.54,2.45-1.76,5-3.43,7.66-5q3.75-2.17,7.62-3.93l1.86-.83.29-.12c.66-.28,1.32-.56,2-.83l.19-.08c.7-.28,1.39-.55,2.09-.81l.19-.07q1.05-.39,2.11-.75l.34-.11c.66-.22,1.31-.44,2-.64l.81-.24,1.53-.45,1.46-.39.89-.24,2.09-.5.27-.06a91.55,91.55,0,0,1,9.54-1.63h.11l2.18-.22.22,0Z"/><path class="cls-19" d="M238.54,5l-.29-.07a148.44,148.44,0,0,0-75.88,0l29.72,51.48-.22,0c2.78-.25,5.59-.39,8.44-.39s5.51.13,8.22.37a91.48,91.48,0,0,1,16.83,3.1l.54.16,1.8.54,1.14.37L230,61l1.48.53.82.3,1.6.62.68.27,1.61.67.66.28,1.57.7.55.25V5.13Z"/><path class="cls-20" d="M36.1,148.66A164.31,164.31,0,0,1,101.5,17.32V14A10.66,10.66,0,0,0,90.85,3.38H68A10.66,10.66,0,0,0,57.37,14v7.1H37.89A37.89,37.89,0,0,0,0,59V238.3a37.89,37.89,0,0,0,37.89,37.89H96.65A164.24,164.24,0,0,1,36.1,148.66Z"/><path class="cls-20" d="M363.47,21.14H304.7a164.57,164.57,0,0,1,0,255.05h58.76a37.89,37.89,0,0,0,37.89-37.89V59A37.89,37.89,0,0,0,363.47,21.14Z"/></g></g></svg>